<?xml version="1.0" encoding="utf-8"?>
<!-- Generator: Adobe Illustrator 24.2.1, SVG Export Plug-In . SVG Version: 6.00 Build 0)  -->
<svg version="1.1" id="Layer_1" xmlns="http://www.w3.org/2000/svg" xmlns:xlink="http://www.w3.org/1999/xlink" x="0px" y="0px"
	 viewBox="0 0 594.5 486" style="enable-background:new 0 0 594.5 486;" xml:space="preserve">
<style type="text/css">
	.st0{fill:#509E34;}
</style>
<path class="st0" d="M349.1,122.6c-3.8,13.9-7.7,29-12.1,46.4c-7.3,29.1-21.1,104.5-25.3,154.3c-2.2,1-8.7,1.9-11.8,1.9
	c-10.1,0-21.9-6.2-22.6-22.2c-1-19.8,10.6-93,28.1-160.8c0.6-2.1,1.1-4.2,1.7-6.3c-22.5,7.7-43.4,15.9-62.2,23.9
	c-7,30.8-16.3,77.9-19.8,124.6c-0.7,0.7-7.3,1.7-10.6,1.7c-12,0-20.4-8-20.3-21.6c0.1-26.6,6-61.5,11.1-86.7
	c-25.3,12.3-44.3,23-55,29.4c-1.9-3.6-2.5-9.4-2-12.2c0.6-4,3-12.8,12.6-19.5c15.7-10.8,32.9-21.4,51.8-31.5
	c9.7-39.6,22.9-79.8,33.9-103.6c7.1-15.4,16.2-21.2,31.8-21.2c4.1,0,9.7,1,12.7,1.9c-14.1,30.6-27.3,67-37.5,103.2
	c19.3-8.4,40.2-16.4,63-23.9c11.1-38.6,21-66.2,30.3-83.7c5.8-11,15.4-15.4,24.1-16.4c7.7-0.9,14.4,0.1,20.4,1.7
	c-14.4,34.4-23.9,59.9-32.1,86c15.6-4.1,32-8.1,49.3-11.7c9.4-2,43.3-8,49.5,24.9C420,105,383.2,112.9,349.1,122.6z M199.9,369.3
	c-5.9,0-11.8,5.4-11.8,11.6c0,4.5,3.2,7.7,7.6,7.7c5.9,0,11.9-5.5,11.9-11.6C207.7,372.4,204.3,369.3,199.9,369.3z M159.2,374.6
	c-3.3,16.3-13.9,67.6-13.9,67.6c-0.7,2.8-4.5,17.6,11,17.6h2.3l20.3-98.4C178.9,361.4,162.5,358.5,159.2,374.6z M183.3,408.8
	c-3.4,15.9-6.9,33.4-6.9,33.4c-0.7,2.8-4.5,17.6,11.1,17.6h2.3l13.2-64C202.3,395.9,186.7,393.1,183.3,408.8z M138.5,417.6
	c0,13.6-5.5,26.5-15.1,34.3c-6,5-14.1,8-23.1,8c-14.4,0-24.7-7.8-24.7-22.9c0-13.5,5.5-26.4,15.1-34.1c6.1-5,14.1-8,23.2-8
	C128.1,394.8,138.5,402.4,138.5,417.6z M121.1,417.7c0-6.7-2.6-11.5-9.4-11.5c-4.3,0-8.1,2.5-10.9,6.1c-5.3,6.7-8,17.4-8,24.7
	c0,6.8,2.7,11.6,9.6,11.6c4.3,0,7.8-2.5,10.7-6.1C118.4,435.7,121.1,424.9,121.1,417.7z M444.8,370.3c-2.6,12-14.9,71.9-14.9,71.9
	c-0.7,3.5-4.2,17.6,11,17.6h2.3l21-102.1C460.2,357.1,447.6,357.1,444.8,370.3z M505.2,394.8c-8.2,0-15.2,3.7-19.6,8.7
	c0,0-0.6-12.5-17-7.5c3,8.7,1.3,11.8-2,29.3l-3.5,17c-0.6,2.9-4.5,17.6,11,17.6h2.3l6.1-29.5c1.7-7.9,4.9-22.9,16.8-22.9
	c5.9,0,9,3.7,7.1,12.8l-4.5,22c-0.7,2.8-4.5,17.6,11,17.6h2.3l8.3-40.3C527.2,402.3,518.2,394.8,505.2,394.8z M60,371.1
	c-0.7,3.7-2.5,11.9-5.3,25.3l-28.6,5.7l8.4-40.6c-2.6-0.5-16.8-1.6-19.6,13.1c-0.9,4.6-14,67.6-14,67.6c-0.7,3.3-4.5,17.6,11,17.6
	h2.4l8.3-39.9l28.6-5.7c-2.8,13.7-5.8,28-5.8,28c-0.7,2.8-4.5,17.6,11,17.6h2.3l21.1-102.1C79.7,357.7,63.4,354.8,60,371.1z
	 M575.3,394.8c-8.2,0-15.2,3.7-19.6,8.7c0,0-0.6-12.5-17-7.5c3,8.7,1.3,11.8-2,29.3l-3.5,17c-0.6,2.9-4.5,17.6,11.1,17.6h2.3
	l6.1-29.5c1.7-7.9,4.9-22.9,16.8-22.9c5.9,0,9,3.7,7.1,12.8l-4.5,22c-0.7,2.8-4.5,17.6,11,17.6h2.3l8.3-40.3
	C597.3,402.3,588.3,394.8,575.3,394.8z M252.5,406.7c-0.9-0.5-3.1-1-5-1c-13.2,0-23.9,16.2-23.9,31.2c0,7.3,3.5,11.4,9.2,11.4
	c4.1,0,7-1.6,9.3-4.1c2.3-2.7,3.9-6.7,4.9-11.4L252.5,406.7z M278.7,361.4l-20.3,98.4h-2.3c-5.2,0-9.7-1.9-11.2-6.6
	c-3.6,3.8-9.7,6.6-17.4,6.6c-13,0-21.5-8.7-21.5-22.5c0-22.5,17.6-42.5,42.3-42.5c2.5,0,5,0.2,6.4,0.6c-0.2,0.7,2.7-12.7,4.2-20.5
	C262.1,359,277.3,361.3,278.7,361.4z M338.7,400.7l-12.2,59.1h-2.3c-5.2,0-9.7-1.8-11.2-6.6c-3.5,3.8-9.7,6.6-17.4,6.6
	c-13,0-20.8-8.5-20.8-22.4c0-23.7,18.7-42.7,42.3-42.7C325.2,394.8,332.1,397.1,338.7,400.7z M320.6,406.6c-1.1-0.5-2.3-1-3.9-1
	c-15,0-24.5,18.1-24.5,31.3c0,7.3,2.9,11.2,8.7,11.2c4.1,0,7.2-1.6,9.5-4.1c2.3-2.7,3.8-6.7,4.8-11.4L320.6,406.6z M389.8,409.5
	c3.5-16.3,20-13.5,20-13.5l-11.6,54.5c-2.3,11-5.4,18.7-10.5,24.4c-6.2,6.9-15.8,11.1-28.1,11.1c-14.3,0-25-6.4-25-17.3
	c0-7.3,4.6-12.6,14.6-15c-2.6-2.9-4.3-6.6-4.3-11.2c0-3.2,0.7-7.1,1.6-10.9c0,0,0.7-3,4.5-21c3.9-18,20.2-14.7,20.2-14.7l-7.6,36.2
	c-0.7,3.1-4,15,6.7,15c12.1,0,14.9-15,16.5-22.9C386.6,424.2,386.3,425.8,389.8,409.5z M380.2,453.7c-3.3,3-9.2,4.5-15.8,5.3
	c-9.3,1.1-15.6,2.6-15.6,9.1c0,5,5,7.8,10.9,7.8c4.8,0,9.2-1.7,12.4-4.8c3.3-3.2,5.7-7.8,6.9-12.8L380.2,453.7z"/>
</svg>
