<?xml version="1.0" encoding="utf-8"?>
<!-- Generator: Adobe Illustrator 19.2.1, SVG Export Plug-In . SVG Version: 6.00 Build 0)  -->
<svg version="1.1" id="layer" xmlns="http://www.w3.org/2000/svg" xmlns:xlink="http://www.w3.org/1999/xlink" x="0px" y="0px"
	 viewBox="0 0 652 652" style="enable-background:new 0 0 652 652;" xml:space="preserve">
<style type="text/css">
	.st0{fill:#53514F;}
</style>
<path class="st0" d="M217,367.7c0.3,0,0.6,0.3,0.6,0.6c0,0,0,0,0,0v30.5c0,0.3-0.2,0.5-0.5,0.6c0,0,0,0,0,0h-4.1
	c-0.2,0-0.5-0.1-0.6-0.3c0-0.1-0.1-0.1-0.1-0.2v-13h-16.8v13c0,0.3-0.2,0.6-0.6,0.6l0,0h-4.1c-0.3,0-0.6-0.2-0.6-0.6l0,0v-30.5
	c0-0.3,0.2-0.6,0.6-0.6h4.1c0.3,0,0.6,0.3,0.6,0.6v12.8h16.8v-12.8c0-0.3,0.3-0.6,0.6-0.6L217,367.7L217,367.7z M255.8,399.8
	c-9.2,0-16.8-6.8-16.8-16.2c0-9.4,7.7-16.3,16.8-16.3c9.2,0,16.8,6.9,16.8,16.3C272.7,393,265,399.8,255.8,399.8z M255.8,372.2
	c-4.6-0.1-8.9,2.6-10.7,6.9c-1.8,4.2-0.9,9.2,2.3,12.5c4.4,4.5,11.7,4.6,16.2,0.2c3.3-3.2,4.3-8.1,2.6-12.4
	C264.6,375,260.5,372.2,255.8,372.2z M316.8,367.7c0.3,0,0.6,0.3,0.6,0.6c0,0,0,0,0,0v3.4c0,0.3-0.2,0.5-0.5,0.6c0,0,0,0,0,0h-10.1
	v26.5c0,0.2-0.1,0.3-0.2,0.4c-0.1,0.1-0.3,0.2-0.4,0.1h-4.1c-0.2,0-0.4-0.1-0.5-0.3c0-0.1,0-0.1,0-0.2v-26.5h-10.1
	c-0.2,0-0.4-0.1-0.5-0.3c0-0.1,0-0.1,0-0.2v-3.4c0-0.2,0-0.3,0.2-0.4c0.1-0.1,0.3-0.2,0.4-0.2L316.8,367.7L316.8,367.7z
	 M362.6,367.7c0.3,0,0.6,0.3,0.6,0.6c0,0,0,0,0,0v3.4c0,0.3-0.2,0.5-0.5,0.6c0,0,0,0,0,0H345v8.9h15.1c0.2,0,0.4,0.1,0.5,0.3
	c0,0.1,0,0.1,0,0.2v3.5c0,0.3-0.3,0.5-0.6,0.6H345v9h17.6c0.2,0,0.3,0.1,0.4,0.2c0.1,0.1,0.2,0.3,0.2,0.4v3.5c0,0.1,0,0.1,0,0.2
	c-0.1,0.2-0.3,0.3-0.5,0.3h-22.2c-0.3,0-0.6-0.2-0.6-0.6v-30.5c0-0.2,0.1-0.3,0.2-0.4c0.1-0.1,0.2-0.2,0.4-0.2
	C340.4,367.7,362.6,367.7,362.6,367.7z M394.2,367.7c0.3,0,0.6,0.3,0.6,0.6v26.4h14.9c0.2,0,0.3,0.1,0.4,0.2
	c0.1,0.1,0.2,0.3,0.2,0.4v3.5c0,0.1,0,0.1,0,0.2c-0.1,0.2-0.3,0.3-0.5,0.3h-19.6c-0.3,0-0.6-0.2-0.6-0.6v-30.5
	c0-0.3,0.2-0.6,0.6-0.6H394.2z M428.6,396.8c-0.1-0.1-0.3-0.2-0.3-0.3c0-0.2,0-0.3,0.1-0.4l1.6-3.4c0.1-0.1,0.2-0.3,0.3-0.3
	c0.2,0,0.3,0,0.4,0.1c2.6,1.8,5.7,2.8,8.8,2.9c1.6,0.1,3.2-0.3,4.5-1.2c1.1-0.8,1.8-2.2,1.7-3.6c0-2.1-1.7-3.3-4-4.2
	c-2.7-1.1-5.8-1.6-8.8-3.3c-2.6-1.4-4.4-3.4-4.4-7c-0.1-2.5,1.1-4.9,3-6.4c2-1.5,4.9-2.4,8.7-2.4c3.4-0.1,6.7,0.7,9.7,2.3
	c0.1,0,0.1,0.1,0.2,0.1c0.1,0.1,0.1,0.1,0.1,0.2c0,0.1,0,0.3-0.1,0.4l-1.6,3.4c-0.1,0.1-0.2,0.3-0.3,0.3c-0.2,0-0.3,0-0.5-0.1
	c-2.4-1.4-5.1-2.2-7.8-2.2c-1.6-0.1-3.2,0.3-4.6,1.2c-0.9,0.7-1.4,1.7-1.3,2.8c0,2.1,1.7,3.1,4.3,4c3,1.1,6.4,1.6,9.1,3.3
	c2.5,1.4,4,4.1,3.9,7c0.1,2.8-1.2,5.5-3.5,7.2c-2.4,1.7-5.4,2.6-8.4,2.5C435.7,399.9,431.9,398.9,428.6,396.8 M35.2,244.1l-14.2,0
	v66.2h11.2l0-51.8l29.4,53.3h2.8l29.4-53.4l-0.1,51.8h11.2v-66.1l-14.1,0l-27.7,50.8L35.2,244.1z M148.8,301.4v-21.5h31.8V271
	l-31.8,0V253h41.3v-8.9l-52.5,0v66.2l53.3,0v-8.9L148.8,301.4L148.8,301.4z M578.9,301.4v-21.5h31.8V271l-31.8,0V253h41.3v-8.9
	l-52.4,0v66.2H621v-8.9C621,301.4,578.9,301.4,578.9,301.4z M354.1,261.1l8.7-6.3c-11.8-14-32.4-16.6-47.2-5.9
	c-4.7,3.4-8.5,8-11,13.2c-5.1,10.7-4.3,23.2,2.1,33.2c3.1,4.9,7.5,9,12.6,11.7c14.3,7.8,32.1,4.7,42.9-7.5l-8.8-6.3
	c-4.5,4.8-10.8,7.4-17.4,7.4c-13.3,0-23.1-10.7-23.1-23.9c0-13.2,9.9-23.9,23.1-23.9C343,253,349.6,255.9,354.1,261.1L354.1,261.1z
	 M442.2,244.3v35.4c-0.1,11-9.1,20.4-20.2,20.4c-11.1,0-20.2-9.4-20.2-20.4v-35.4h-11.2v36.2c0.1,8.2,3.5,16,9.4,21.7
	c12.3,12,31.8,12,44.1,0c5.9-5.7,9.2-13.5,9.4-21.7v-36.2C453.4,244.3,442.2,244.3,442.2,244.3z M265.6,283.5c6-3.3,9.4-9.9,9.5-18
	c0-6.6-1.7-11.6-5.2-15.1c-4.1-4.1-10.8-6.2-20-6.2h-26.4v66.2h11.2v-23h19.7l11.8,23h12.4L264.7,284L265.6,283.5z M250.1,277.4
	h-15.6v-23.7h15.3c6.3,0,14.6,1.2,14.6,11.8C264.5,273.4,259.7,277.4,250.1,277.4z M526.2,283.5c6-3.3,9.5-9.9,9.5-18
	c0-6.6-1.7-11.6-5.2-15.1c-4.1-4.1-10.8-6.2-20-6.2h-26.4v66.2h11.2v-23H515l11.8,23h12.4L525.3,284
	C525.3,284,526.2,283.5,526.2,283.5z M510.8,277.4h-15.6v-23.7h15.3c6.3,0,14.6,1.2,14.6,11.8C525.2,273.4,520.4,277.4,510.8,277.4z
	"/>
</svg>
