<svg xmlns="http://www.w3.org/2000/svg" xmlns:xlink="http://www.w3.org/1999/xlink" width="500" zoomAndPan="magnify" viewBox="0 0 375 135.000003" height="180" preserveAspectRatio="xMidYMid meet" version="1.0"><defs><g/></defs><g fill="#000000" fill-opacity="1"><g transform="translate(30.083495, 83.576996)"><g><path d="M 18.074219 0.617188 C 29.253906 0.617188 34.46875 -7.558594 34.46875 -16.882812 C 34.46875 -26.207031 29.253906 -34.335938 18.074219 -34.335938 C 6.9375 -34.335938 1.722656 -26.207031 1.722656 -16.882812 C 1.722656 -7.558594 6.9375 0.617188 18.074219 0.617188 Z M 18.074219 -5.082031 C 11.933594 -5.082031 8.351562 -9.855469 8.351562 -16.882812 C 8.351562 -23.863281 11.933594 -28.59375 18.074219 -28.59375 C 24.304688 -28.59375 27.839844 -23.863281 27.839844 -16.882812 C 27.839844 -9.855469 24.304688 -5.082031 18.074219 -5.082031 Z M 18.074219 -5.082031 "/></g></g></g><g fill="#000000" fill-opacity="1"><g transform="translate(66.320213, 83.576996)"><g><path d="M 15.734375 -25.277344 C 12.816406 -25.277344 10.695312 -24.4375 8.707031 -21.65625 L 8.707031 -24.792969 L 2.738281 -24.792969 L 2.738281 8.925781 L 8.707031 8.925781 L 8.707031 -3.136719 C 10.695312 -0.308594 12.816406 0.53125 15.734375 0.53125 C 22.230469 0.53125 26.648438 -4.773438 26.648438 -12.375 C 26.648438 -19.976562 22.230469 -25.277344 15.734375 -25.277344 Z M 14.363281 -20.152344 C 18.164062 -20.152344 20.636719 -16.882812 20.636719 -12.375 C 20.636719 -7.867188 18.164062 -4.597656 14.363281 -4.597656 C 10.5625 -4.597656 7.953125 -7.777344 7.953125 -12.375 C 7.953125 -16.96875 10.5625 -20.152344 14.363281 -20.152344 Z M 14.363281 -20.152344 "/></g></g></g><g fill="#000000" fill-opacity="1"><g transform="translate(94.735108, 83.576996)"><g><path d="M 11.359375 0.484375 C 14.273438 0.484375 16.261719 -0.574219 18.074219 -3.136719 L 18.074219 0 L 24.039062 0 L 24.039062 -24.792969 L 18.074219 -24.792969 L 18.074219 -12.195312 C 18.074219 -8.925781 17.675781 -7.113281 16.660156 -5.921875 C 15.820312 -4.90625 14.582031 -4.417969 12.859375 -4.417969 C 11.445312 -4.417969 10.429688 -4.773438 9.722656 -5.523438 C 8.882812 -6.453125 8.527344 -7.910156 8.527344 -10.472656 L 8.527344 -24.792969 L 2.5625 -24.792969 L 2.5625 -10.519531 C 2.5625 -6.9375 2.828125 -5.257812 3.625 -3.625 C 4.949219 -0.882812 7.511719 0.484375 11.359375 0.484375 Z M 11.359375 0.484375 "/></g></g></g><g fill="#000000" fill-opacity="1"><g transform="translate(121.514925, 83.576996)"><g><path d="M 12.195312 0 L 12.195312 -4.949219 L 10.605469 -4.949219 C 9.148438 -4.949219 8.574219 -5.523438 8.574219 -7.203125 L 8.574219 -33.71875 L 2.605469 -33.71875 L 2.605469 -5.4375 C 2.605469 -1.589844 4.683594 0 8.351562 0 Z M 12.195312 0 "/></g></g></g><g fill="#000000" fill-opacity="1"><g transform="translate(134.860648, 83.576996)"><g><path d="M 14.320312 0.484375 C 20.949219 0.484375 24.746094 -3.535156 26.207031 -8.351562 L 20.109375 -8.351562 C 19.3125 -6.320312 17.367188 -4.640625 14.539062 -4.640625 C 11.976562 -4.640625 9.945312 -5.964844 8.792969 -8.265625 C 8.351562 -9.015625 7.953125 -10.121094 7.867188 -11.179688 L 26.605469 -11.179688 L 26.605469 -12.460938 C 26.605469 -21.433594 20.550781 -25.324219 14.140625 -25.324219 C 5.65625 -25.324219 1.679688 -18.738281 1.679688 -12.242188 C 1.679688 -4.90625 6.71875 0.484375 14.320312 0.484375 Z M 8.132812 -15.644531 C 8.21875 -16.308594 8.441406 -17.148438 9.105469 -17.941406 C 10.253906 -19.710938 12.109375 -20.59375 14.320312 -20.59375 C 16.484375 -20.59375 18.429688 -19.710938 19.578125 -17.941406 C 20.195312 -17.191406 20.417969 -16.308594 20.503906 -15.644531 Z M 8.132812 -15.644531 "/></g></g></g><g fill="#000000" fill-opacity="1"><g transform="translate(163.142966, 83.576996)"><g><path d="M 8.660156 0 L 8.660156 -12.640625 C 8.660156 -15.910156 9.105469 -17.722656 10.121094 -18.914062 C 10.914062 -19.886719 12.152344 -20.417969 13.875 -20.417969 C 15.289062 -20.417969 16.308594 -20.0625 17.015625 -19.3125 C 17.855469 -18.382812 18.25 -16.882812 18.25 -14.363281 L 18.25 0 L 24.171875 0 L 24.171875 -14.273438 C 24.171875 -16.75 24.171875 -19.003906 23.15625 -21.167969 C 22.050781 -23.464844 19.929688 -25.324219 15.421875 -25.324219 C 12.773438 -25.324219 10.652344 -24.4375 8.660156 -21.65625 L 8.660156 -24.792969 L 2.695312 -24.792969 L 2.695312 0 Z M 8.660156 0 "/></g></g></g><g fill="#000000" fill-opacity="1"><g transform="translate(189.87859, 83.576996)"><g><path d="M 15.378906 0 L 15.378906 -4.949219 L 12.683594 -4.949219 C 10.828125 -4.949219 10.652344 -5.964844 10.652344 -7.246094 L 10.652344 -20.019531 L 15.421875 -20.019531 L 15.421875 -24.792969 L 10.652344 -24.792969 L 10.652344 -33.71875 L 4.683594 -33.71875 L 4.683594 -24.792969 L 1.015625 -24.792969 L 1.015625 -20.019531 L 4.683594 -20.019531 L 4.683594 -5.4375 C 4.683594 -1.589844 6.804688 0 10.472656 0 Z M 15.378906 0 "/></g></g></g><g fill="#000000" fill-opacity="1"><g transform="translate(206.803789, 83.576996)"><g/></g></g><g fill="#000000" fill-opacity="1"><g transform="translate(218.647011, 83.576996)"><g><path d="M 23.644531 0 L 23.644531 -5.699219 L 9.367188 -5.699219 L 9.367188 -33.71875 L 3.003906 -33.71875 L 3.003906 0 Z M 23.644531 0 "/></g></g></g><g fill="#000000" fill-opacity="1"><g transform="translate(242.775366, 83.576996)"><g><path d="M 5.699219 -27.53125 C 7.691406 -27.53125 9.367188 -28.859375 9.367188 -30.933594 C 9.367188 -32.921875 7.691406 -34.335938 5.699219 -34.335938 C 3.667969 -34.335938 2.03125 -32.921875 2.03125 -30.933594 C 2.03125 -28.859375 3.667969 -27.53125 5.699219 -27.53125 Z M 8.660156 0 L 8.660156 -24.792969 L 2.695312 -24.792969 L 2.695312 0 Z M 8.660156 0 "/></g></g></g><g fill="#000000" fill-opacity="1"><g transform="translate(254.176677, 83.576996)"><g><path d="M 14.40625 0 L 23.597656 -24.792969 L 17.234375 -24.792969 L 12.019531 -9.148438 L 6.894531 -24.792969 L 0.53125 -24.792969 L 9.679688 0 Z M 14.40625 0 "/></g></g></g><g fill="#000000" fill-opacity="1"><g transform="translate(278.305019, 83.576996)"><g><path d="M 5.699219 -27.53125 C 7.691406 -27.53125 9.367188 -28.859375 9.367188 -30.933594 C 9.367188 -32.921875 7.691406 -34.335938 5.699219 -34.335938 C 3.667969 -34.335938 2.03125 -32.921875 2.03125 -30.933594 C 2.03125 -28.859375 3.667969 -27.53125 5.699219 -27.53125 Z M 8.660156 0 L 8.660156 -24.792969 L 2.695312 -24.792969 L 2.695312 0 Z M 8.660156 0 "/></g></g></g><g fill="#000000" fill-opacity="1"><g transform="translate(289.706331, 83.576996)"><g><path d="M 8.660156 0 L 8.660156 -12.640625 C 8.660156 -15.910156 9.105469 -17.722656 10.121094 -18.914062 C 10.914062 -19.886719 12.152344 -20.417969 13.875 -20.417969 C 15.289062 -20.417969 16.308594 -20.0625 17.015625 -19.3125 C 17.855469 -18.382812 18.25 -16.882812 18.25 -14.363281 L 18.25 0 L 24.171875 0 L 24.171875 -14.273438 C 24.171875 -16.75 24.171875 -19.003906 23.15625 -21.167969 C 22.050781 -23.464844 19.929688 -25.324219 15.421875 -25.324219 C 12.773438 -25.324219 10.652344 -24.4375 8.660156 -21.65625 L 8.660156 -24.792969 L 2.695312 -24.792969 L 2.695312 0 Z M 8.660156 0 "/></g></g></g><g fill="#000000" fill-opacity="1"><g transform="translate(316.441956, 83.576996)"><g><path d="M 14.097656 9.414062 C 20.636719 9.414062 25.765625 6.9375 25.765625 -1.589844 L 25.765625 -24.792969 L 19.796875 -24.792969 L 19.796875 -21.65625 C 17.808594 -24.4375 15.6875 -25.324219 12.726562 -25.324219 C 6.273438 -25.324219 1.855469 -20.019531 1.855469 -12.59375 C 1.855469 -5.347656 6.273438 -0.0429688 12.726562 -0.0429688 C 15.644531 -0.0429688 17.765625 -0.839844 19.796875 -3.667969 L 19.796875 -0.175781 C 19.796875 2.695312 18.117188 4.773438 14.054688 4.773438 C 11.136719 4.773438 9.367188 3.757812 8.617188 1.324219 L 2.605469 1.324219 C 3.667969 7.734375 9.015625 9.414062 14.097656 9.414062 Z M 14.140625 -5.171875 C 10.296875 -5.171875 7.867188 -8.441406 7.867188 -12.683594 C 7.867188 -16.925781 10.296875 -20.195312 14.140625 -20.195312 C 17.898438 -20.195312 20.550781 -17.015625 20.550781 -12.683594 C 20.550781 -8.351562 17.898438 -5.171875 14.140625 -5.171875 Z M 14.140625 -5.171875 "/></g></g></g></svg>