<svg xmlns="http://www.w3.org/2000/svg" xmlns:xlink="http://www.w3.org/1999/xlink" width="500" zoomAndPan="magnify" viewBox="0 0 375 374.999991" height="500" preserveAspectRatio="xMidYMid meet" version="1.0"><defs><clipPath id="6390b3d2c3"><path d="M 29.070312 29 L 345.929688 29 L 345.929688 345.859375 L 29.070312 345.859375 Z M 29.070312 29 " clip-rule="nonzero"/></clipPath><clipPath id="b00a934f77"><path d="M 300.84375 297.050781 L 302.277344 292.636719 C 312.605469 270.371094 320.605469 247.347656 324.339844 223.007812 C 329.171875 191.675781 327.453125 161.015625 312.414062 132.414062 C 294.480469 98.292969 265.839844 76.90625 229.210938 66.414062 C 192.449219 55.886719 156.675781 59.011719 123.242188 78.3125 C 92.246094 96.207031 74.121094 123.699219 66.582031 158.351562 C 60.949219 184.242188 61.789062 209.664062 72.226562 234.5 C 93.558594 285.152344 140.078125 310.734375 186.738281 311.289062 C 199.570312 311.4375 212.304688 311.179688 224.582031 306.742188 C 231.566406 304.210938 238.023438 300.851562 243.25 295.4375 C 252.183594 286.167969 255.160156 275.367188 250.273438 263.304688 C 245.347656 251.175781 235.804688 244.84375 222.6875 244.542969 L 186.722656 244.476562 C 181.132812 244.476562 175.53125 244.492188 169.941406 244.464844 L 166.421875 244.152344 L 166.421875 209.542969 C 168.179688 209.433594 169.859375 209.230469 171.535156 209.230469 L 213.742188 209.175781 C 225.476562 209.082031 234.570312 202.867188 238.363281 192.714844 C 244.046875 177.433594 233.476562 159.769531 217.042969 159.109375 C 195.832031 158.269531 174.554688 158.90625 152.679688 158.90625 L 152.679688 289.238281 C 150.960938 288.902344 149.867188 288.886719 148.933594 288.480469 L 120.414062 276.164062 C 118.261719 275.230469 117.421875 273.808594 117.421875 271.371094 L 117.488281 126.527344 C 117.488281 125.753906 117.652344 124.984375 117.757812 123.859375 L 122.023438 123.589844 C 152.722656 123.578125 183.421875 123.496094 214.105469 123.605469 C 244.222656 123.726562 268.613281 143.878906 274.152344 173.457031 C 277.101562 189.222656 273.8125 203.953125 265.054688 217.417969 L 261.941406 222.046875 C 263.292969 223.292969 264.527344 224.472656 265.8125 225.621094 C 293.332031 250.269531 295.15625 291.757812 269.820312 318.640625 C 262.890625 325.988281 254.117188 330.644531 245.007812 334.597656 C 223 344.140625 199.976562 346.96875 176.152344 345.140625 C 142.421875 342.554688 112.441406 330.671875 86.546875 309.042969 C 55.753906 283.3125 37.210938 250.390625 31.1875 210.636719 C 18.125 124.429688 78.25 42.699219 166.597656 30.761719 C 252.386719 19.164062 331.988281 79.246094 343.914062 165.050781 C 350.707031 213.996094 336.984375 257.023438 304.292969 294.015625 L 300.761719 296.953125 Z M 300.84375 297.050781 " clip-rule="nonzero"/></clipPath><clipPath id="0700092a3e"><path d="M 300 296.914062 L 300.847656 296.914062 L 300.847656 298 L 300 298 Z M 300 296.914062 " clip-rule="nonzero"/></clipPath><clipPath id="b3a4ba20ee"><path d="M 300.734375 296.941406 L 300.492188 297.617188 L 300.164062 297.753906 L 300.585938 297.238281 Z M 300.734375 296.941406 " clip-rule="nonzero"/></clipPath></defs><g clip-path="url(#6390b3d2c3)"><g clip-path="url(#b00a934f77)"><path fill="#ffffff" d="M 22.632812 22.558594 L 352.367188 22.558594 L 352.367188 352.296875 L 22.632812 352.296875 Z M 22.632812 22.558594 " fill-opacity="1" fill-rule="nonzero"/></g></g><g clip-path="url(#0700092a3e)"><g clip-path="url(#b3a4ba20ee)"><path fill="#ffffff" d="M 22.632812 22.558594 L 352.367188 22.558594 L 352.367188 352.296875 L 22.632812 352.296875 Z M 22.632812 22.558594 " fill-opacity="1" fill-rule="nonzero"/></g></g></svg>