<svg xmlns="http://www.w3.org/2000/svg" xmlns:xlink="http://www.w3.org/1999/xlink" width="1200" zoomAndPan="magnify" viewBox="0 0 900 299.999988" height="400" preserveAspectRatio="xMidYMid meet" version="1.0"><defs><clipPath id="f773100a3f"><path d="M 5.316406 19.140625 L 266.921875 19.140625 L 266.921875 280.742188 L 5.316406 280.742188 Z M 5.316406 19.140625 " clip-rule="nonzero"/></clipPath><clipPath id="c553076b8a"><path d="M 229.695312 240.445312 L 230.882812 236.804688 C 239.410156 218.417969 246.011719 199.410156 249.097656 179.316406 C 253.085938 153.445312 251.667969 128.132812 239.25 104.519531 C 224.445312 76.347656 200.796875 58.691406 170.558594 50.03125 C 140.207031 41.335938 110.667969 43.917969 83.066406 59.851562 C 57.472656 74.628906 42.511719 97.324219 36.285156 125.933594 C 31.636719 147.3125 32.332031 168.296875 40.945312 188.804688 C 58.558594 230.621094 96.96875 251.746094 135.488281 252.203125 C 146.082031 252.324219 156.597656 252.113281 166.734375 248.449219 C 172.5 246.359375 177.832031 243.585938 182.144531 239.117188 C 189.523438 231.460938 191.980469 222.542969 187.945312 212.585938 C 183.878906 202.574219 176 197.34375 165.171875 197.097656 L 135.476562 197.042969 C 130.863281 197.042969 126.234375 197.050781 121.621094 197.03125 L 118.714844 196.773438 L 118.714844 168.199219 C 120.167969 168.109375 121.554688 167.941406 122.9375 167.941406 L 157.785156 167.894531 C 167.472656 167.816406 174.984375 162.6875 178.113281 154.308594 C 182.804688 141.691406 174.078125 127.105469 160.511719 126.558594 C 143 125.867188 125.429688 126.390625 107.371094 126.390625 L 107.371094 233.996094 C 105.953125 233.71875 105.046875 233.707031 104.277344 233.371094 L 80.730469 223.203125 C 78.953125 222.429688 78.261719 221.257812 78.261719 219.246094 L 78.316406 99.660156 C 78.316406 99.023438 78.449219 98.386719 78.539062 97.457031 L 82.058594 97.234375 C 107.40625 97.222656 132.75 97.15625 158.085938 97.246094 C 182.949219 97.347656 203.089844 113.988281 207.660156 138.40625 C 210.09375 151.421875 207.378906 163.582031 200.148438 174.703125 L 197.578125 178.523438 C 198.695312 179.550781 199.714844 180.523438 200.773438 181.472656 C 223.496094 201.824219 225.003906 236.078125 204.082031 258.269531 C 198.363281 264.339844 191.121094 268.183594 183.597656 271.445312 C 165.429688 279.324219 146.417969 281.660156 126.75 280.152344 C 98.902344 278.015625 74.148438 268.207031 52.769531 250.347656 C 27.347656 229.101562 12.035156 201.925781 7.0625 169.101562 C -3.722656 97.925781 45.917969 30.453125 118.859375 20.59375 C 189.6875 11.015625 255.410156 60.625 265.257812 131.464844 C 270.867188 171.875 259.535156 207.402344 232.546875 237.941406 L 229.628906 240.367188 Z M 229.695312 240.445312 " clip-rule="nonzero"/></clipPath><clipPath id="6b5df9a1a9"><path d="M 229 240.332031 L 229.699219 240.332031 L 229.699219 241.394531 L 229 241.394531 Z M 229 240.332031 " clip-rule="nonzero"/></clipPath><clipPath id="fa9d1e37a9"><path d="M 229.609375 240.355469 L 229.40625 240.914062 L 229.136719 241.027344 L 229.484375 240.601562 Z M 229.609375 240.355469 " clip-rule="nonzero"/></clipPath><clipPath id="da748bf2f1"><path d="M 304.851562 79.742188 L 380 79.742188 L 380 168 L 304.851562 168 Z M 304.851562 79.742188 " clip-rule="nonzero"/></clipPath><clipPath id="12be60748c"><path d="M 321.234375 152.472656 L 346.703125 152.472656 C 353.507812 152.472656 363.21875 150.203125 363.21875 141.886719 C 363.21875 133.941406 353.507812 129.785156 346.703125 129.785156 L 321.234375 129.785156 Z M 321.234375 115.167969 L 346.703125 115.167969 C 357.164062 115.167969 360.570312 110.753906 360.570312 105.714844 C 360.570312 101.679688 357.296875 94.875 346.703125 94.875 L 321.234375 94.875 Z M 377.066406 105.332031 C 377.066406 112.140625 373.792969 118.699219 365.601562 122.351562 C 375.9375 125.492188 379.726562 136.457031 379.726562 142.011719 C 379.726562 161.667969 364.976562 167.972656 346.703125 167.972656 L 304.851562 167.972656 L 304.851562 79.742188 L 346.703125 79.742188 C 364.09375 79.742188 377.078125 87.554688 377.078125 105.324219 " clip-rule="nonzero"/></clipPath><clipPath id="52c0c34dd0"><path d="M 391.445312 79.742188 L 408.085938 79.742188 L 408.085938 152.59375 L 391.445312 152.59375 Z M 391.445312 152.59375 L 453.457031 152.59375 L 453.457031 167.972656 L 391.445312 167.972656 Z M 391.445312 152.59375 " clip-rule="nonzero"/></clipPath><clipPath id="eb556bf62d"><path d="M 460 79.695312 L 537.40625 79.695312 L 537.40625 169.910156 L 460 169.910156 Z M 460 79.695312 " clip-rule="nonzero"/></clipPath><clipPath id="53c479d232"><path d="M 537.40625 79.863281 L 537.40625 130.410156 C 537.40625 156.503906 521.402344 169.859375 499.21875 169.859375 C 478.042969 169.859375 460.015625 156.996094 460.015625 130.410156 L 460.015625 79.863281 L 476.523438 79.863281 L 476.523438 130.410156 C 476.523438 146.289062 485.597656 154.738281 499.332031 154.738281 C 513.066406 154.738281 520.890625 145.542969 520.890625 130.410156 L 520.890625 79.863281 Z M 537.40625 79.863281 " clip-rule="nonzero"/></clipPath><clipPath id="c778f658db"><path d="M 318.875 190.125 L 322.082031 190.125 L 322.082031 200.460938 L 318.875 200.460938 Z M 303.351562 190.125 L 306.558594 190.125 L 306.558594 200.460938 L 303.351562 200.460938 Z M 303.351562 200.460938 L 322.082031 200.460938 L 322.082031 203.523438 L 303.351562 203.523438 Z M 303.351562 203.523438 L 306.558594 203.523438 L 306.558594 213.402344 L 303.351562 213.402344 Z M 318.875 203.523438 L 322.082031 203.523438 L 322.082031 213.402344 L 318.875 213.402344 Z M 318.875 203.523438 " clip-rule="nonzero"/></clipPath><clipPath id="afd05c8707"><path d="M 332.917969 189.695312 L 356.402344 189.695312 L 356.402344 213.863281 L 332.917969 213.863281 Z M 332.917969 189.695312 " clip-rule="nonzero"/></clipPath><clipPath id="8da927f54f"><path d="M 344.667969 210.6875 C 338.820312 210.6875 336.140625 206.050781 336.117188 201.757812 C 336.105469 199.121094 336.964844 196.773438 338.542969 195.175781 C 340.050781 193.667969 342.164062 192.875 344.667969 192.875 C 350.589844 192.875 353.238281 197.332031 353.238281 201.769531 C 353.238281 206.0625 350.554688 210.6875 344.667969 210.6875 M 353.046875 193.007812 C 350.945312 190.894531 348.0625 189.789062 344.667969 189.789062 C 336.5625 189.789062 332.933594 195.789062 332.933594 201.726562 C 332.933594 207.523438 336.609375 213.773438 344.667969 213.773438 C 352.679688 213.773438 356.355469 207.570312 356.390625 201.804688 C 356.398438 198.316406 355.226562 195.1875 353.046875 193.007812 " clip-rule="nonzero"/></clipPath><clipPath id="7144494db1"><path d="M 365.601562 189.695312 L 385.101562 189.695312 L 385.101562 213.863281 L 365.601562 213.863281 Z M 365.601562 189.695312 " clip-rule="nonzero"/></clipPath><clipPath id="3939f0b64b"><path d="M 384.996094 206.875 C 384.988281 211.167969 381.464844 213.738281 375.644531 213.738281 C 372.246094 213.738281 367.957031 212.386719 366.054688 208.597656 L 365.699219 207.90625 L 368.570312 206.472656 L 368.90625 207.144531 C 370.066406 209.457031 373.183594 210.675781 375.644531 210.675781 C 377.5 210.675781 381.789062 210.296875 381.789062 206.84375 C 381.824219 204.382812 379.230469 203.691406 375.273438 202.941406 C 371.230469 202.148438 366.625 201.253906 366.625 196.605469 C 366.59375 194.917969 367.128906 193.488281 368.246094 192.359375 C 369.800781 190.761719 372.570312 189.8125 375.644531 189.8125 C 379.175781 189.8125 381.980469 190.503906 384.238281 193.847656 L 384.683594 194.515625 L 381.96875 196.113281 L 381.589844 195.488281 C 380.269531 193.386719 378.257812 192.929688 375.632812 192.894531 C 375.050781 192.894531 369.832031 193.007812 369.832031 196.550781 C 369.832031 198.617188 372.101562 199.1875 375.84375 199.890625 L 376.089844 199.9375 C 380.28125 200.730469 385.007812 201.636719 385.007812 206.875 " clip-rule="nonzero"/></clipPath><clipPath id="49a04afc4f"><path d="M 395.539062 190.105469 L 413.804688 190.105469 L 413.804688 213.453125 L 395.539062 213.453125 Z M 395.539062 190.105469 " clip-rule="nonzero"/></clipPath><clipPath id="7f2250b20a"><path d="M 405.851562 202.832031 L 398.765625 202.832031 L 398.765625 193.230469 L 405.851562 193.230469 C 409.046875 193.230469 410.5 195.710938 410.5 198.035156 C 410.5 199.3125 410.085938 200.496094 409.335938 201.367188 C 408.511719 202.328125 407.292969 202.84375 405.851562 202.84375 M 405.851562 190.136719 L 395.546875 190.136719 L 395.546875 213.402344 L 398.765625 213.402344 L 398.765625 205.882812 L 405.851562 205.882812 C 408.265625 205.882812 410.289062 205.023438 411.730469 203.402344 C 413.003906 201.96875 413.695312 200.058594 413.695312 198.015625 C 413.695312 194.101562 410.992188 190.125 405.851562 190.125 " clip-rule="nonzero"/></clipPath><clipPath id="76f59c5eb3"><path d="M 424.414062 190.125 L 427.585938 190.125 L 427.585938 213.402344 L 424.414062 213.402344 Z M 424.414062 190.125 " clip-rule="nonzero"/></clipPath><clipPath id="2b2d0eaef5"><path d="M 437.699219 190.160156 L 456.621094 190.160156 L 456.621094 193.175781 L 437.699219 193.175781 Z M 445.558594 193.175781 L 448.765625 193.175781 L 448.765625 213.402344 L 445.558594 213.402344 Z M 445.558594 193.175781 " clip-rule="nonzero"/></clipPath><clipPath id="c3a658fadc"><path d="M 464.0625 190.105469 L 487.957031 190.105469 L 487.957031 213.453125 L 464.0625 213.453125 Z M 464.0625 190.105469 " clip-rule="nonzero"/></clipPath><clipPath id="9774b57801"><path d="M 471.316406 204.976562 L 475.964844 194.40625 L 480.625 204.976562 Z M 477.394531 190.125 L 474.566406 190.125 L 464.140625 213.402344 L 467.628906 213.402344 L 469.996094 208.0625 L 481.976562 208.0625 L 484.355469 213.402344 L 487.855469 213.402344 Z M 477.394531 190.125 " clip-rule="nonzero"/></clipPath><clipPath id="0d9ecc0e4f"><path d="M 496.875 190.125 L 500.082031 190.125 L 500.082031 210.285156 L 496.875 210.285156 Z M 496.875 210.285156 L 512.316406 210.285156 L 512.316406 213.402344 L 496.875 213.402344 Z M 496.875 210.285156 " clip-rule="nonzero"/></clipPath><clipPath id="d6a5ccade2"><path d="M 522.519531 190.125 L 525.695312 190.125 L 525.695312 213.402344 L 522.519531 213.402344 Z M 522.519531 190.125 " clip-rule="nonzero"/></clipPath><clipPath id="68829653c0"><path d="M 535.796875 190.160156 L 554.71875 190.160156 L 554.71875 193.175781 L 535.796875 193.175781 Z M 543.652344 193.175781 L 546.859375 193.175781 L 546.859375 213.402344 L 543.652344 213.402344 Z M 543.652344 193.175781 " clip-rule="nonzero"/></clipPath><clipPath id="aeec016dba"><path d="M 563 190.105469 L 583.261719 190.105469 L 583.261719 213.453125 L 563 213.453125 Z M 563 190.105469 " clip-rule="nonzero"/></clipPath><clipPath id="0cf155cbe7"><path d="M 583.214844 190.125 L 583.214844 191.121094 L 583.089844 191.355469 L 574.710938 204.160156 L 574.710938 213.390625 L 571.503906 213.390625 L 571.503906 204.160156 L 563.019531 191.152344 L 563.019531 190.160156 L 563.792969 190.125 L 566.171875 190.125 L 573.113281 200.910156 L 580.097656 190.125 Z M 583.214844 190.125 " clip-rule="nonzero"/></clipPath><clipPath id="0dd75f5887"><path d="M 553.414062 79.738281 L 619.460938 79.738281 L 619.460938 95.875 L 553.414062 95.875 Z M 553.414062 95.875 L 569.917969 95.875 L 569.917969 116.171875 L 553.414062 116.171875 Z M 553.414062 116.171875 L 617.695312 116.171875 L 617.695312 131.671875 L 553.414062 131.671875 Z M 553.414062 131.671875 L 569.917969 131.671875 L 569.917969 151.585938 L 553.414062 151.585938 Z M 553.414062 151.585938 L 619.460938 151.585938 L 619.460938 167.96875 L 553.414062 167.96875 Z M 553.414062 151.585938 " clip-rule="nonzero"/></clipPath><clipPath id="2bae662964"><path d="M 630.148438 78 L 719.664062 78 L 719.664062 169.875 L 630.148438 169.875 Z M 630.148438 78 " clip-rule="nonzero"/></clipPath><clipPath id="767a35ce1e"><path d="M 637.105469 123.859375 C 637.230469 143.773438 649.835938 163.175781 674.921875 163.175781 C 700.132812 163.175781 712.863281 143.761719 712.863281 123.847656 C 712.863281 103.429688 700.257812 84.644531 674.921875 84.644531 C 649.589844 84.644531 636.984375 103.0625 637.105469 123.859375 M 719.410156 123.984375 C 719.289062 147.171875 704.539062 169.488281 674.921875 169.488281 C 645.308594 169.488281 630.421875 147.046875 630.421875 123.726562 C 630.421875 100.035156 645.175781 78.355469 674.921875 78.355469 C 704.671875 78.355469 719.546875 100.15625 719.410156 123.984375 " clip-rule="nonzero"/></clipPath><clipPath id="f47721f2de"><path d="M 601.71875 190.117188 L 624 190.117188 L 624 213.519531 L 601.71875 213.519531 Z M 601.71875 190.117188 " clip-rule="nonzero"/></clipPath><clipPath id="ff29bbdf7b"><path d="M 623.9375 190.121094 L 623.9375 213.402344 L 620.765625 213.402344 L 620.765625 195.898438 L 613.636719 206.820312 L 612.238281 206.820312 L 605.042969 195.878906 L 605.042969 213.402344 L 601.835938 213.402344 L 601.835938 190.121094 L 604.996094 190.121094 L 612.898438 202.160156 L 620.710938 190.121094 Z M 623.9375 190.121094 " clip-rule="nonzero"/></clipPath><clipPath id="4b8eecfa66"><path d="M 633.058594 190.117188 L 656.867188 190.117188 L 656.867188 213.519531 L 633.058594 213.519531 Z M 633.058594 190.117188 " clip-rule="nonzero"/></clipPath><clipPath id="a77b0f62b6"><path d="M 640.253906 204.972656 L 644.902344 194.402344 L 649.5625 204.972656 Z M 646.324219 190.121094 L 643.507812 190.121094 L 633.070312 213.402344 L 636.554688 213.402344 L 638.925781 208.058594 L 650.894531 208.058594 L 653.273438 213.402344 L 656.761719 213.402344 Z M 646.324219 190.121094 " clip-rule="nonzero"/></clipPath><clipPath id="4adcadcb12"><path d="M 665.765625 190.117188 L 684.375 190.117188 L 684.375 213.519531 L 665.765625 213.519531 Z M 665.765625 190.117188 " clip-rule="nonzero"/></clipPath><clipPath id="893d33a4fb"><path d="M 684.339844 190.121094 L 684.339844 213.402344 L 682.566406 213.402344 L 669.054688 196.828125 L 669.054688 213.402344 L 665.847656 213.402344 L 665.847656 190.121094 L 667.691406 190.121094 L 681.167969 206.71875 L 681.167969 190.121094 Z M 684.339844 190.121094 " clip-rule="nonzero"/></clipPath><clipPath id="98c35ea762"><path d="M 693.40625 190.117188 L 717.355469 190.117188 L 717.355469 213.519531 L 693.40625 213.519531 Z M 693.40625 190.117188 " clip-rule="nonzero"/></clipPath><clipPath id="65e8540789"><path d="M 700.714844 204.972656 L 705.382812 194.402344 L 710.035156 204.972656 Z M 706.804688 190.121094 L 703.988281 190.121094 L 693.539062 213.402344 L 697.035156 213.402344 L 699.382812 208.058594 L 711.363281 208.058594 L 713.753906 213.402344 L 717.242188 213.402344 Z M 706.804688 190.121094 " clip-rule="nonzero"/></clipPath><clipPath id="c3c0857b82"><path d="M 725.15625 189.707031 L 746.230469 189.707031 L 746.230469 213.792969 L 725.15625 213.792969 Z M 725.15625 189.707031 " clip-rule="nonzero"/></clipPath><clipPath id="ae2265f199"><path d="M 735.433594 200.503906 L 746.128906 200.503906 L 746.128906 209.722656 L 745.894531 209.957031 C 743.425781 212.429688 740.476562 213.691406 737.167969 213.691406 C 728.898438 213.691406 725.1875 207.734375 725.1875 201.84375 C 725.175781 198.347656 726.304688 195.351562 728.472656 193.171875 C 730.617188 191.015625 733.703125 189.820312 737.167969 189.820312 C 740.363281 189.820312 743.371094 191.0625 745.648438 193.308594 L 746.175781 193.832031 L 744.183594 196.011719 L 743.613281 195.464844 C 741.972656 193.855469 739.570312 192.882812 737.167969 192.882812 C 734.574219 192.882812 732.382812 193.730469 730.820312 195.285156 C 729.210938 196.917969 728.316406 199.230469 728.339844 201.789062 C 728.339844 205.835938 730.652344 210.5625 737.179688 210.5625 C 739.355469 210.5625 741.425781 209.8125 743.023438 208.460938 L 743.023438 203.488281 L 735.445312 203.488281 Z M 735.433594 200.503906 " clip-rule="nonzero"/></clipPath><clipPath id="f1ac5bbcfd"><path d="M 735.671875 79.742188 L 804.886719 79.742188 L 804.886719 168 L 735.671875 168 Z M 735.671875 79.742188 " clip-rule="nonzero"/></clipPath><clipPath id="587da318d3"><path d="M 738.566406 79.742188 L 797.941406 152.714844 L 797.941406 79.742188 L 804.625 79.742188 L 804.625 167.972656 L 801.976562 167.972656 L 742.476562 95.121094 L 742.476562 167.972656 L 735.671875 167.972656 L 735.671875 79.742188 Z M 738.566406 79.742188 " clip-rule="nonzero"/></clipPath><clipPath id="dc218ea0ac"><path d="M 757.664062 190.128906 L 774.195312 190.128906 L 774.195312 193.257812 L 757.664062 193.257812 Z M 757.664062 193.257812 L 760.839844 193.257812 L 760.839844 200.164062 L 757.664062 200.164062 Z M 757.664062 200.164062 L 773.558594 200.164062 L 773.558594 203.214844 L 757.664062 203.214844 Z M 757.664062 203.214844 L 760.839844 203.214844 L 760.839844 210.242188 L 757.664062 210.242188 Z M 757.664062 210.242188 L 774.550781 210.242188 L 774.550781 213.40625 L 757.664062 213.40625 Z M 757.664062 210.242188 " clip-rule="nonzero"/></clipPath><clipPath id="521be6f337"><path d="M 785.183594 190.058594 L 807.519531 190.058594 L 807.519531 213.472656 L 785.183594 213.472656 Z M 785.183594 190.058594 " clip-rule="nonzero"/></clipPath><clipPath id="b83bef4e6c"><path d="M 807.40625 190.128906 L 807.40625 213.40625 L 804.234375 213.40625 L 804.234375 195.894531 L 797.082031 206.8125 L 795.695312 206.8125 L 788.5 195.871094 L 788.5 213.40625 L 785.28125 213.40625 L 785.28125 190.128906 L 788.453125 190.128906 L 796.355469 202.152344 L 804.167969 190.128906 Z M 807.40625 190.128906 " clip-rule="nonzero"/></clipPath><clipPath id="97af5de604"><path d="M 824.28125 79.742188 L 885.164062 79.742188 L 885.164062 86.167969 L 824.28125 86.167969 Z M 824.28125 86.167969 L 830.964844 86.167969 L 830.964844 120.453125 L 824.28125 120.453125 Z M 824.28125 120.453125 L 882.636719 120.453125 L 882.636719 126.632812 L 824.28125 126.632812 Z M 824.28125 126.632812 L 830.964844 126.632812 L 830.964844 161.410156 L 824.28125 161.410156 Z M 824.28125 161.410156 L 886.671875 161.410156 L 886.671875 167.972656 L 824.28125 167.972656 Z M 824.28125 161.410156 " clip-rule="nonzero"/></clipPath><clipPath id="b742545f02"><path d="M 819.1875 190.128906 L 835.71875 190.128906 L 835.71875 193.257812 L 819.1875 193.257812 Z M 819.1875 193.257812 L 822.363281 193.257812 L 822.363281 200.164062 L 819.1875 200.164062 Z M 819.1875 200.164062 L 835.101562 200.164062 L 835.101562 203.214844 L 819.1875 203.214844 Z M 819.1875 203.214844 L 822.363281 203.214844 L 822.363281 210.242188 L 819.1875 210.242188 Z M 819.1875 210.242188 L 836.074219 210.242188 L 836.074219 213.40625 L 819.1875 213.40625 Z M 819.1875 210.242188 " clip-rule="nonzero"/></clipPath><clipPath id="20f6b742ae"><path d="M 846.707031 190.058594 L 865.410156 190.058594 L 865.410156 213.472656 L 846.707031 213.472656 Z M 846.707031 190.058594 " clip-rule="nonzero"/></clipPath><clipPath id="9983a007d6"><path d="M 865.320312 190.128906 L 865.320312 213.40625 L 863.542969 213.40625 L 850.023438 196.832031 L 850.023438 213.40625 L 846.816406 213.40625 L 846.816406 190.128906 L 848.660156 190.128906 L 862.148438 206.710938 L 862.148438 190.128906 Z M 865.320312 190.128906 " clip-rule="nonzero"/></clipPath><clipPath id="f9dc29358b"><path d="M 875.492188 190.160156 L 894.410156 190.160156 L 894.410156 193.179688 L 875.492188 193.179688 Z M 883.347656 193.179688 L 886.554688 193.179688 L 886.554688 213.40625 L 883.347656 213.40625 Z M 883.347656 193.179688 " clip-rule="nonzero"/></clipPath></defs><g clip-path="url(#f773100a3f)"><g clip-path="url(#c553076b8a)"><path fill="#3366b0" d="M 0 13.824219 L 272.238281 13.824219 L 272.238281 286.058594 L 0 286.058594 Z M 0 13.824219 " fill-opacity="1" fill-rule="nonzero"/></g></g><g clip-path="url(#6b5df9a1a9)"><g clip-path="url(#fa9d1e37a9)"><path fill="#3366b0" d="M 0 13.824219 L 272.238281 13.824219 L 272.238281 286.058594 L 0 286.058594 Z M 0 13.824219 " fill-opacity="1" fill-rule="nonzero"/></g></g><g clip-path="url(#da748bf2f1)"><g clip-path="url(#12be60748c)"><path fill="#3366b0" d="M 304.851562 79.742188 L 379.722656 79.742188 L 379.722656 168.066406 L 304.851562 168.066406 Z M 304.851562 79.742188 " fill-opacity="1" fill-rule="nonzero"/></g></g><g clip-path="url(#52c0c34dd0)"><path fill="#3366b0" d="M 385.859375 74.15625 L 542.945312 74.15625 L 542.945312 175.449219 L 385.859375 175.449219 Z M 385.859375 74.15625 " fill-opacity="1" fill-rule="nonzero"/></g><g clip-path="url(#eb556bf62d)"><g clip-path="url(#53c479d232)"><path fill="#3366b0" d="M 385.859375 74.15625 L 542.945312 74.15625 L 542.945312 175.449219 L 385.859375 175.449219 Z M 385.859375 74.15625 " fill-opacity="1" fill-rule="nonzero"/></g></g><g clip-path="url(#c778f658db)"><path fill="#3366b0" d="M 297.761719 184.203125 L 588.753906 184.203125 L 588.753906 219.355469 L 297.761719 219.355469 Z M 297.761719 184.203125 " fill-opacity="1" fill-rule="nonzero"/></g><g clip-path="url(#afd05c8707)"><g clip-path="url(#8da927f54f)"><path fill="#3366b0" d="M 297.761719 184.203125 L 588.753906 184.203125 L 588.753906 219.355469 L 297.761719 219.355469 Z M 297.761719 184.203125 " fill-opacity="1" fill-rule="nonzero"/></g></g><g clip-path="url(#7144494db1)"><g clip-path="url(#3939f0b64b)"><path fill="#3366b0" d="M 297.761719 184.203125 L 588.753906 184.203125 L 588.753906 219.355469 L 297.761719 219.355469 Z M 297.761719 184.203125 " fill-opacity="1" fill-rule="nonzero"/></g></g><g clip-path="url(#49a04afc4f)"><g clip-path="url(#7f2250b20a)"><path fill="#3366b0" d="M 297.761719 184.203125 L 588.753906 184.203125 L 588.753906 219.355469 L 297.761719 219.355469 Z M 297.761719 184.203125 " fill-opacity="1" fill-rule="nonzero"/></g></g><g clip-path="url(#76f59c5eb3)"><path fill="#3366b0" d="M 297.761719 184.203125 L 588.753906 184.203125 L 588.753906 219.355469 L 297.761719 219.355469 Z M 297.761719 184.203125 " fill-opacity="1" fill-rule="nonzero"/></g><g clip-path="url(#2b2d0eaef5)"><path fill="#3366b0" d="M 297.761719 184.203125 L 588.753906 184.203125 L 588.753906 219.355469 L 297.761719 219.355469 Z M 297.761719 184.203125 " fill-opacity="1" fill-rule="nonzero"/></g><g clip-path="url(#c3a658fadc)"><g clip-path="url(#9774b57801)"><path fill="#3366b0" d="M 297.761719 184.203125 L 588.753906 184.203125 L 588.753906 219.355469 L 297.761719 219.355469 Z M 297.761719 184.203125 " fill-opacity="1" fill-rule="nonzero"/></g></g><g clip-path="url(#0d9ecc0e4f)"><path fill="#3366b0" d="M 297.761719 184.203125 L 588.753906 184.203125 L 588.753906 219.355469 L 297.761719 219.355469 Z M 297.761719 184.203125 " fill-opacity="1" fill-rule="nonzero"/></g><g clip-path="url(#d6a5ccade2)"><path fill="#3366b0" d="M 297.761719 184.203125 L 588.753906 184.203125 L 588.753906 219.355469 L 297.761719 219.355469 Z M 297.761719 184.203125 " fill-opacity="1" fill-rule="nonzero"/></g><g clip-path="url(#68829653c0)"><path fill="#3366b0" d="M 297.761719 184.203125 L 588.753906 184.203125 L 588.753906 219.355469 L 297.761719 219.355469 Z M 297.761719 184.203125 " fill-opacity="1" fill-rule="nonzero"/></g><g clip-path="url(#aeec016dba)"><g clip-path="url(#0cf155cbe7)"><path fill="#3366b0" d="M 297.761719 184.203125 L 588.753906 184.203125 L 588.753906 219.355469 L 297.761719 219.355469 Z M 297.761719 184.203125 " fill-opacity="1" fill-rule="nonzero"/></g></g><g clip-path="url(#0dd75f5887)"><path fill="#3366b0" d="M 547.828125 72.765625 L 724.859375 72.765625 L 724.859375 175.070312 L 547.828125 175.070312 Z M 547.828125 72.765625 " fill-opacity="1" fill-rule="nonzero"/></g><g clip-path="url(#2bae662964)"><g clip-path="url(#767a35ce1e)"><path fill="#3366b0" d="M 547.828125 72.765625 L 724.859375 72.765625 L 724.859375 175.070312 L 547.828125 175.070312 Z M 547.828125 72.765625 " fill-opacity="1" fill-rule="nonzero"/></g></g><g clip-path="url(#f47721f2de)"><g clip-path="url(#ff29bbdf7b)"><path fill="#3366b0" d="M 596.246094 184.234375 L 751.703125 184.234375 L 751.703125 219.265625 L 596.246094 219.265625 Z M 596.246094 184.234375 " fill-opacity="1" fill-rule="nonzero"/></g></g><g clip-path="url(#4b8eecfa66)"><g clip-path="url(#a77b0f62b6)"><path fill="#3366b0" d="M 596.246094 184.234375 L 751.703125 184.234375 L 751.703125 219.265625 L 596.246094 219.265625 Z M 596.246094 184.234375 " fill-opacity="1" fill-rule="nonzero"/></g></g><g clip-path="url(#4adcadcb12)"><g clip-path="url(#893d33a4fb)"><path fill="#3366b0" d="M 596.246094 184.234375 L 751.703125 184.234375 L 751.703125 219.265625 L 596.246094 219.265625 Z M 596.246094 184.234375 " fill-opacity="1" fill-rule="nonzero"/></g></g><g clip-path="url(#98c35ea762)"><g clip-path="url(#65e8540789)"><path fill="#3366b0" d="M 596.246094 184.234375 L 751.703125 184.234375 L 751.703125 219.265625 L 596.246094 219.265625 Z M 596.246094 184.234375 " fill-opacity="1" fill-rule="nonzero"/></g></g><g clip-path="url(#c3c0857b82)"><g clip-path="url(#ae2265f199)"><path fill="#3366b0" d="M 596.246094 184.234375 L 751.703125 184.234375 L 751.703125 219.265625 L 596.246094 219.265625 Z M 596.246094 184.234375 " fill-opacity="1" fill-rule="nonzero"/></g></g><g clip-path="url(#f1ac5bbcfd)"><g clip-path="url(#587da318d3)"><path fill="#3366b0" d="M 735.671875 79.742188 L 804.617188 79.742188 L 804.617188 168.078125 L 735.671875 168.078125 Z M 735.671875 79.742188 " fill-opacity="1" fill-rule="nonzero"/></g></g><g clip-path="url(#dc218ea0ac)"><path fill="#3366b0" d="M 752.078125 184.539062 L 813.039062 184.539062 L 813.039062 218.992188 L 752.078125 218.992188 Z M 752.078125 184.539062 " fill-opacity="1" fill-rule="nonzero"/></g><g clip-path="url(#521be6f337)"><g clip-path="url(#b83bef4e6c)"><path fill="#3366b0" d="M 752.078125 184.539062 L 813.039062 184.539062 L 813.039062 218.992188 L 752.078125 218.992188 Z M 752.078125 184.539062 " fill-opacity="1" fill-rule="nonzero"/></g></g><g clip-path="url(#97af5de604)"><path fill="#3366b0" d="M 824.28125 79.742188 L 886.671875 79.742188 L 886.671875 167.964844 L 824.28125 167.964844 Z M 824.28125 79.742188 " fill-opacity="1" fill-rule="nonzero"/></g><g clip-path="url(#b742545f02)"><path fill="#3366b0" d="M 813.601562 184.539062 L 899.996094 184.539062 L 899.996094 218.992188 L 813.601562 218.992188 Z M 813.601562 184.539062 " fill-opacity="1" fill-rule="nonzero"/></g><g clip-path="url(#20f6b742ae)"><g clip-path="url(#9983a007d6)"><path fill="#3366b0" d="M 813.601562 184.539062 L 899.996094 184.539062 L 899.996094 218.992188 L 813.601562 218.992188 Z M 813.601562 184.539062 " fill-opacity="1" fill-rule="nonzero"/></g></g><g clip-path="url(#f9dc29358b)"><path fill="#3366b0" d="M 813.601562 184.539062 L 899.996094 184.539062 L 899.996094 218.992188 L 813.601562 218.992188 Z M 813.601562 184.539062 " fill-opacity="1" fill-rule="nonzero"/></g></svg>