<svg xmlns="http://www.w3.org/2000/svg" viewBox="0 0 64 64" id="DeliveryTruck"><path d="m60.314 35.31-9.258-11.22A2.99 2.99 0 0 0 48.742 23H42V6a3.003 3.003 0 0 0-3-3H6a3.003 3.003 0 0 0-3 3v46a3.003 3.003 0 0 0 3 3h3.08a6.99 6.99 0 0 0 13.84 0h18.16a6.99 6.99 0 0 0 13.84 0H58a3.003 3.003 0 0 0 3-3V37.219a3.008 3.008 0 0 0-.686-1.91ZM18.059 5h8.882v11.735l-3.717-3.903a1.03 1.03 0 0 0-1.448 0l-3.717 3.903ZM5 6a1.001 1.001 0 0 1 1-1h10.059v14.235a1 1 0 0 0 1.724.69l4.717-4.953 4.717 4.953a1 1 0 0 0 1.724-.69V5H39a1.001 1.001 0 0 1 1 1v36a1.001 1.001 0 0 1-1 1H6a1.001 1.001 0 0 1-1-1Zm11 53a5 5 0 1 1 5-5 5.006 5.006 0 0 1-5 5Zm32 0a5 5 0 1 1 5-5 5.006 5.006 0 0 1-5 5Zm11-7a1 1 0 0 1-1 1h-3.08a6.99 6.99 0 0 0-13.84 0H22.92a6.99 6.99 0 0 0-13.84 0H6a1 1 0 0 1-1-1v-6a1 1 0 0 1 1-1h33a3 3 0 0 0 3-3V25h6.74a1 1 0 0 1 .773.364l9.258 11.218a1 1 0 0 1 .229.637ZM30.441 35.294a1 1 0 0 1 1-1h4.353a1 1 0 0 1 0 2H31.44a1 1 0 0 1-1-1Zm0 3.265a1 1 0 0 1 1-1h4.353a1 1 0 0 1 0 2H31.44a1 1 0 0 1-1-1ZM47.79 27.386A1 1 0 0 0 47 27h-3a1 1 0 0 0-1 1v9a1 1 0 0 0 1 1h10a1 1 0 0 0 .79-1.614ZM45 36v-7h1.51l5.446 7Z" data-name="Layer 2" fill="#ffffff" class="color000000 svgShape"></path></svg>