<svg xmlns="http://www.w3.org/2000/svg" viewBox="0 0 8.467 8.467" id="Hotel"><path style="line-height:normal;font-variant-ligatures:normal;font-variant-position:normal;font-variant-caps:normal;font-variant-numeric:normal;font-variant-alternates:normal;font-feature-settings:normal;text-indent:0;text-align:start;text-decoration-line:none;text-decoration-style:solid;text-decoration-color:#000;text-transform:none;text-orientation:mixed;shape-padding:0;isolation:auto;mix-blend-mode:normal" d="M8.002 0c-1.09 0-2 .91-2 2v2.002c0 1.09.908 1.999 1.998 2V12H2c-1.09 0-2 .91-2 2v16c0 1.09.91 2 2 2h8c.158 0 .31-.021.45-.055h.001c.179.034.361.055.549.055h10c.186 0 .366-.022.543-.055.142.034.295.055.455.055H30c1.09 0 2-.91 2-2V14.004c0-1.09-.91-2-2-2h-6V6.002a2.018 2.018 0 0 0 1.998-2V2c0-1.09-.91-2-2-2H8.002zm0 2h15.996v2.002H22.77A1 1 0 0 0 22.725 4H9.275a1 1 0 0 0-.033.002h-1.24V2zM10 6.002h12v6.926a1 1 0 0 0-.002.072v16.004c0 .014-.005.027-.006.04a1.04 1.04 0 0 1-.06.308.931.931 0 0 1-.09.17c-.022.035-.043.07-.069.103a.976.976 0 0 1-.18.17c-.015.011-.032.02-.048.031a1.052 1.052 0 0 1-.24.115c-.098.03-.195.059-.305.059h-1v-5c0-1.645-1.355-3-3-3h-2c-1.645 0-3 1.355-3 3v5h-1c-.11 0-.207-.029-.305-.059a1.043 1.043 0 0 1-.24-.115c-.018-.012-.037-.022-.055-.035a.973.973 0 0 1-.171-.162.956.956 0 0 1-.083-.125c-.028-.048-.057-.095-.078-.149A1.036 1.036 0 0 1 10 29V6.002zm2.004 2.996a1 1 0 0 0 0 2h2a1 1 0 0 0 0-2h-2zm5.992 0a1 1 0 0 0 0 2h2.002a1 1 0 0 0 0-2h-2.002zM12.004 13a1 1 0 1 0 0 2h7.994a1 1 0 1 0 0-2h-7.994zM2 14h6v15c0 .352.074.685.188 1H2V14zm22 .004h6V30h-6.188c.114-.315.188-.648.188-1V14.004zM3.898 17a1.002 1.002 0 0 0 .104 2.002h2a1 1 0 0 0 0-2.002h-2a1 1 0 0 0-.104 0zm8.002 0a1.002 1.002 0 0 0 .104 2.002h7.994a1 1 0 0 0 0-2.002h-7.994a1 1 0 0 0-.104 0zm14.002 0a1.001 1.001 0 0 0 .096 2.002H28A1 1 0 0 0 28 17h-2.002a1 1 0 0 0-.096 0zM3.898 21.002a1.002 1.002 0 0 0 .104 2h2a1 1 0 0 0 0-2h-2a1 1 0 0 0-.104 0zm22.004 0a1.001 1.001 0 0 0 .096 2H28a1 1 0 0 0 0-2h-2.002a1 1 0 0 0-.096 0zM15 24h2c.571 0 1 .429 1 1v5h-4v-5c0-.571.429-1 1-1z" color="#000" font-family="sans-serif" font-weight="400" overflow="visible" transform="scale(.26458)" fill="#ffffff" class="color000000 svgShape"></path></svg>